# Blender v2.79 (sub 0) OBJ File: 'blob.blend'
# www.blender.org
mtllib blob.mtl
o Icosphere
v 0.828253 0.187034 -0.875192
v -0.962867 0.142962 -0.740908
v 0.825481 0.204150 0.965899
v -0.764743 0.800579 2.092155
v -2.248042 1.032614 0.311173
v -2.396310 1.301035 -1.052812
v -1.772537 2.086957 1.428841
v -2.308816 2.491154 0.382643
v -0.849508 0.866586 -2.201634
v -1.990135 2.742582 -0.922074
v -1.487733 2.486459 -1.858102
v -0.959349 2.980255 -0.127687
v -0.270252 3.015933 -0.820091
v -0.096797 2.318487 0.752855
v 0.747088 1.706370 -0.479325
v 0.092627 1.816625 -1.677811
vn -0.0253 0.9996 -0.0093
vn 0.1913 0.9531 -0.2346
vn 0.4173 0.8784 -0.2331
vn 0.6144 0.7841 0.0875
vn 0.7543 0.2862 -0.5909
vn 0.9940 0.0463 -0.0989
vn 0.8974 0.0588 -0.4373
vn 0.0113 0.8957 0.4446
vn 0.5167 0.7505 0.4119
vn 0.9432 -0.2817 0.1761
vn 0.8135 -0.2757 0.5121
vn 0.6076 0.0716 0.7910
vn 0.3021 -0.9470 -0.1087
vn 0.1613 -0.8900 -0.4265
vn 0.1505 -0.9836 0.0991
vn 0.1295 -0.9365 0.3258
vn -0.3122 -0.8808 -0.3561
vn -0.0993 -0.8397 -0.5338
vn -0.2331 -0.5837 -0.7778
vn -0.6252 -0.3433 -0.7009
vn -0.7484 -0.6330 -0.1981
vn -0.8362 -0.4023 -0.3728
vn -0.7763 -0.5048 0.3775
vn -0.3411 -0.6129 0.7127
vn -0.2278 -0.2871 0.9304
vn -0.8718 -0.1666 0.4607
vn -0.9986 -0.0531 -0.0010
vn -0.5809 0.1333 0.8030
usemtl None
s off
f 1//1 2//1 3//1
f 3//2 2//2 4//2
f 2//3 5//3 4//3
f 5//4 2//4 6//4
f 4//5 5//5 7//5
f 6//6 8//6 5//6
f 7//7 5//7 8//7
f 2//8 1//8 9//8
f 6//9 2//9 9//9
f 8//10 6//10 10//10
f 10//11 6//11 11//11
f 9//12 11//12 6//12
f 10//13 12//13 8//13
f 8//14 12//14 7//14
f 12//15 10//15 13//15
f 11//16 13//16 10//16
f 13//17 14//17 12//17
f 12//18 14//18 7//18
f 7//19 14//19 4//19
f 4//20 14//20 3//20
f 14//21 13//21 15//21
f 14//22 15//22 3//22
f 15//23 13//23 16//23
f 13//24 11//24 16//24
f 11//25 9//25 16//25
f 15//26 16//26 1//26
f 1//27 3//27 15//27
f 9//28 1//28 16//28
